<?xml version="1.0" encoding="UTF-8"?>
<svg width="716px" height="427px" viewBox="0 0 716 427" version="1.1" xmlns="http://www.w3.org/2000/svg" xmlns:xlink="http://www.w3.org/1999/xlink">
    <!-- Generator: Sketch 57.1 (83088) - https://sketch.com -->
    <title>final@2x</title>
    <desc>Created with Sketch.</desc>
    <g id="final" stroke="none" stroke-width="1" fill="none" fill-rule="evenodd">
        <g id="Group{:linearEase;0,7,10,724,427,360,1;}">
            <path d="M62.8361321,210 C58.8738957,210 55.1318396,209.228145 51.6098517,207.684411 C48.0878637,206.140677 45.0428573,204.082396 42.4747411,201.509506 C39.9066249,198.936616 37.8521628,195.885949 36.311293,192.357414 C34.7704233,188.82888 34,185.079868 34,181.110266 C34,178.316843 34.9538574,176.001277 36.8616009,174.163498 C38.7693444,172.32572 41.0439275,171.406844 43.6854184,171.406844 C46.4736589,171.406844 48.8216156,172.32572 50.7293591,174.163498 C52.6371026,176.001277 53.59096,178.316843 53.59096,181.110266 C53.59096,183.609645 54.5081306,185.778191 56.3424993,187.61597 C58.176868,189.453748 60.3413906,190.372624 62.8361321,190.372624 C65.4776231,190.372624 67.7155193,189.453748 69.549888,187.61597 C71.3842568,185.778191 72.3014274,183.609645 72.3014274,181.110266 L72.3014274,45.7034221 C72.3014274,43.057021 73.218598,40.7782098 75.0529667,38.8669202 C76.8873354,36.9556305 79.1986053,36 81.9868458,36 C84.6283367,36 86.9029198,36.9556305 88.8106633,38.8669202 C90.7184068,40.7782098 91.6722642,43.057021 91.6722642,45.7034221 L91.6722642,181.110266 C91.6722642,185.079868 90.9385277,188.82888 89.4710327,192.357414 C88.0035378,195.885949 85.9490756,198.936616 83.3075847,201.509506 C80.6660937,204.082396 77.5844005,206.140677 74.0624125,207.684411 C70.5404246,209.228145 66.7983685,210 62.8361321,210 Z M148.163868,210 C144.201631,210 140.459575,209.228145 136.937587,207.684411 C133.4156,206.140677 130.370593,204.082396 127.802477,201.509506 C125.234361,198.936616 123.179899,195.885949 121.639029,192.357414 C120.098159,188.82888 119.327736,185.079868 119.327736,181.110266 C119.327736,178.316843 120.281593,176.001277 122.189337,174.163498 C124.09708,172.32572 126.371663,171.406844 129.013154,171.406844 C131.801395,171.406844 134.149351,172.32572 136.057095,174.163498 C137.964838,176.001277 138.918696,178.316843 138.918696,181.110266 C138.918696,183.609645 139.835866,185.778191 141.670235,187.61597 C143.504604,189.453748 145.669126,190.372624 148.163868,190.372624 C150.805359,190.372624 153.043255,189.453748 154.877624,187.61597 C156.711993,185.778191 157.629163,183.609645 157.629163,181.110266 L157.629163,45.7034221 C157.629163,43.057021 158.546334,40.7782098 160.380702,38.8669202 C162.215071,36.9556305 164.526341,36 167.314582,36 C169.956073,36 172.230656,36.9556305 174.138399,38.8669202 C176.046143,40.7782098 177,43.057021 177,45.7034221 L177,181.110266 C177,185.079868 176.266264,188.82888 174.798769,192.357414 C173.331274,195.885949 171.276811,198.936616 168.63532,201.509506 C165.99383,204.082396 162.912136,206.140677 159.390148,207.684411 C155.86816,209.228145 152.126104,210 148.163868,210 Z" id="JJ" fill="#CB4D4D" fill-rule="nonzero"></path>
            <g id="Group-10" transform="translate(0.000000, 252.000000)" fill-rule="nonzero">
                <path d="M131.8,115.2 L109.8,137.2 L131.4,158.6 C133.133342,160.60001 134,162.733322 134,165 C134,167.400012 133.133342,169.466658 131.4,171.2 C129.666658,172.933342 127.533346,173.8 125,173.8 C122.466654,173.8 120.400008,172.933342 118.8,171.2 L97.4,149.8 C94.466652,152.600014 91.500015,155.466652 88.5,158.4 C85.499985,161.333348 82.33335,163.933322 79,166.2 C75.266648,168.600012 71.233355,170.499993 66.9,171.9 C62.566645,173.3 57.466696,174 51.6,174 C44.533298,174 37.866698,172.66668 31.6,170 C25.333302,167.33332 19.86669,163.66669 15.2,159 C10.53331,154.33331 6.86668,148.866698 4.2,142.6 C1.53332,136.333302 0.2,129.666702 0.2,122.6 C0.2,116.733304 0.899993,111.633355 2.3,107.3 C3.7,102.966645 5.599988,98.933352 8,95.2 C10.266678,91.86665 12.866652,88.700015 15.8,85.7 C18.733348,82.699985 21.666652,79.733348 24.6,76.8 C21.399984,73.333316 18.933342,69.566687 17.2,65.5 C15.466658,61.433313 14.6,56.866692 14.6,51.8 C14.6,46.733308 15.566657,41.933356 17.5,37.4 C19.433343,32.866644 22.06665,28.93335 25.4,25.6 C28.73335,22.26665 32.666644,19.633343 37.2,17.7 C41.733356,15.766657 46.533308,14.8 51.6,14.8 C56.800026,14.8 61.633311,15.766657 66.1,17.7 C70.566689,19.633343 74.46665,22.26665 77.8,25.6 C81.13335,28.93335 83.766657,32.866644 85.7,37.4 C87.633343,41.933356 88.6,46.733308 88.6,51.8 C88.6,56.46669 87.666676,61.199976 85.8,66 C83.933324,70.800024 81.266684,74.799984 77.8,78 C76.066658,79.733342 74.000012,80.6 71.6,80.6 C69.066654,80.6 66.966675,79.733342 65.3,78 C63.633325,76.266658 62.8,74.133346 62.8,71.6 C62.8,70.533328 62.966665,69.600004 63.3,68.8 C63.633335,67.999996 63.999998,67.26667 64.4,66.6 C64.800002,65.93333 65.266664,65.3 65.8,64.7 C66.333336,64.099997 66.866664,63.46667 67.4,62.8 C68.333338,61.46666 69.166663,59.933342 69.9,58.2 C70.633337,56.466658 71,54.333346 71,51.8 C71,46.46664 69.133352,41.933352 65.4,38.2 C61.666648,34.466648 57.066694,32.6 51.6,32.6 C46.26664,32.6 41.733352,34.466648 38,38.2 C34.266648,41.933352 32.4,46.46664 32.4,51.8 C32.4,55.000016 32.933328,57.633323 34,59.7 C35.066672,61.766677 36.666656,63.866656 38.8,66 C40.13334,67.600008 41.666658,69.133326 43.4,70.6 L97.4,124.6 L119.2,102.8 C120.800008,101.066658 122.93332,100.2 125.6,100.2 C128.000012,100.2 130.066658,101.066658 131.8,102.8 C133.533342,104.533342 134.4,106.599988 134.4,109 C134.4,111.400012 133.533342,113.466658 131.8,115.2 Z M37,89.4 L30.8,95.6 C26.933314,99.60002 23.833345,103.59998 21.5,107.6 C19.166655,111.60002 18,116.59997 18,122.6 C18,127.26669 18.866658,131.633313 20.6,135.7 C22.333342,139.766687 24.733318,143.333318 27.8,146.4 C30.866682,149.466682 34.433313,151.866658 38.5,153.6 C42.566687,155.333342 46.93331,156.2 51.6,156.2 C57.60003,156.2 62.59998,155.033345 66.6,152.7 C70.60002,150.366655 74.59998,147.266686 78.6,143.4 L84.8,137.2 L37,89.4 Z" id="&amp;" fill="#9D9D9D"></path>
                <path d="M240.98,174.3 C237.01998,174.3 233.280018,173.530008 229.76,171.99 C226.239982,170.449992 223.19668,168.39668 220.63,165.83 C218.063321,163.263321 216.010008,160.220018 214.47,156.7 C212.929992,153.179982 212.16,149.44002 212.16,145.48 C212.16,142.693319 213.113324,140.383342 215.02,138.55 C216.926676,136.716657 219.199987,135.8 221.84,135.8 C224.626681,135.8 226.973324,136.716657 228.88,138.55 C230.786676,140.383342 231.74,142.693319 231.74,145.48 C231.74,147.973346 232.656657,150.136658 234.49,151.97 C236.323342,153.803342 238.486654,154.72 240.98,154.72 C243.620013,154.72 245.856657,153.803342 247.69,151.97 C249.523343,150.136658 250.44,147.973346 250.44,145.48 L250.44,10.4 C250.44,7.7599868 251.356657,5.4866762 253.19,3.58 C255.023343,1.6733238 257.333319,0.72 260.12,0.72 C262.760013,0.72 265.033324,1.6733238 266.94,3.58 C268.846676,5.4866762 269.8,7.7599868 269.8,10.4 L269.8,145.48 C269.8,149.44002 269.066674,153.179982 267.6,156.7 C266.133326,160.220018 264.080013,163.263321 261.44,165.83 C258.799987,168.39668 255.720018,170.449992 252.2,171.99 C248.679982,173.530008 244.94002,174.3 240.98,174.3 Z M400.26,122.82 L316.88,122.82 C317.46667,127.366689 318.823323,131.583314 320.95,135.47 C323.076677,139.356686 325.789984,142.729986 329.09,145.59 C332.390017,148.450014 336.129979,150.686659 340.31,152.3 C344.490021,153.913341 348.926643,154.72 353.62,154.72 C356.406681,154.72 358.936655,154.5 361.21,154.06 C363.483345,153.619998 365.60999,152.923338 367.59,151.97 C369.57001,151.016662 371.54999,149.84334 373.53,148.45 C375.51001,147.05666 377.673322,145.480009 380.02,143.72 C380.900004,142.986663 381.816662,142.363336 382.77,141.85 C383.723338,141.336664 385.006659,141.08 386.62,141.08 C389.406681,141.08 391.753324,142.033324 393.66,143.94 C395.566676,145.846676 396.52,148.119987 396.52,150.76 C396.52,152.373341 396.22667,153.693328 395.64,154.72 C395.05333,155.746672 394.393337,156.699996 393.66,157.58 C391.313322,160.220013 388.563349,162.603323 385.41,164.73 C382.256651,166.856677 378.883351,168.61666 375.29,170.01 C371.696649,171.40334 368.030019,172.466663 364.29,173.2 C360.549981,173.933337 356.99335,174.3 353.62,174.3 C345.846628,174.3 338.513368,172.796682 331.62,169.79 C324.726632,166.783318 318.713359,162.713359 313.58,157.58 C308.446641,152.446641 304.376682,146.470034 301.37,139.65 C298.363318,132.829966 296.86,125.533372 296.86,117.76 C296.86,109.986628 298.363318,102.653368 301.37,95.76 C304.376682,88.8666322 308.446641,82.853359 313.58,77.72 C318.713359,72.586641 324.726632,68.5166817 331.62,65.51 C338.513368,62.5033183 345.846628,61 353.62,61 C361.100037,61 368.139967,62.2466542 374.74,64.74 C381.340033,67.2333458 387.206641,70.7899769 392.34,75.41 C397.473359,80.0300231 401.579985,85.5299681 404.66,91.91 C407.740015,98.2900319 409.499998,105.293295 409.94,112.92 C410.086667,115.853348 409.17001,118.236657 407.19,120.07 C405.20999,121.903342 402.900013,122.82 400.26,122.82 Z M353.62,80.58 C345.993295,80.58 339.100031,82.6699791 332.94,86.85 C326.779969,91.0300209 322.233348,96.4932996 319.3,103.24 L387.72,103.24 C384.933319,96.3466322 380.423365,90.8466872 374.19,86.74 C367.956636,82.6333128 361.100037,80.58 353.62,80.58 Z M530.72,174.3 C527.933319,174.3 525.586676,173.346676 523.68,171.44 C521.773324,169.533324 520.82,167.260013 520.82,164.62 L520.82,160.44 C515.686641,164.840022 509.966698,168.249988 503.66,170.67 C497.353302,173.090012 490.753368,174.3 483.86,174.3 C476.086628,174.3 468.753368,172.796682 461.86,169.79 C454.966632,166.783318 448.953359,162.713359 443.82,157.58 C438.686641,152.446641 434.616682,146.470034 431.61,139.65 C428.603318,132.829966 427.1,125.533372 427.1,117.76 C427.1,109.986628 428.603318,102.653368 431.61,95.76 C434.616682,88.8666322 438.686641,82.853359 443.82,77.72 C448.953359,72.586641 454.966632,68.5166817 461.86,65.51 C468.753368,62.5033183 476.086628,61 483.86,61 C490.753368,61 497.353302,62.2099879 503.66,64.63 C509.966698,67.0500121 515.686641,70.459978 520.82,74.86 L520.82,70.68 C520.82,68.0399868 521.773324,65.7666762 523.68,63.86 C525.586676,61.9533238 527.933319,61 530.72,61 C533.360013,61 535.633324,61.9533238 537.54,63.86 C539.446676,65.7666762 540.4,68.0399868 540.4,70.68 L540.4,164.62 C540.4,167.260013 539.446676,169.533324 537.54,171.44 C535.633324,173.346676 533.360013,174.3 530.72,174.3 Z M483.86,80.58 C478.726641,80.58 473.923356,81.5699901 469.45,83.55 C464.976644,85.5300099 461.05335,88.2066498 457.68,91.58 C454.30665,94.9533502 451.63001,98.8766443 449.65,103.35 C447.66999,107.823356 446.68,112.626641 446.68,117.76 C446.68,122.893359 447.66999,127.696644 449.65,132.17 C451.63001,136.643356 454.30665,140.56665 457.68,143.94 C461.05335,147.31335 464.976644,149.953324 469.45,151.86 C473.923356,153.766676 478.726641,154.72 483.86,154.72 C488.993359,154.72 493.796644,153.766676 498.27,151.86 C502.743356,149.953324 506.66665,147.31335 510.04,143.94 C513.41335,140.56665 516.053324,136.643356 517.96,132.17 C519.866676,127.696644 520.82,122.893359 520.82,117.76 C520.82,112.626641 519.866676,107.823356 517.96,103.35 C516.053324,98.8766443 513.41335,94.9533502 510.04,91.58 C506.66665,88.2066498 502.743356,85.5300099 498.27,83.55 C493.796644,81.5699901 488.993359,80.58 483.86,80.58 Z M596.06,67.6 C602.953368,63.199978 610.35996,61 618.28,61 C623.853361,61 629.133308,62.0633227 634.12,64.19 C639.106692,66.3166773 643.469981,69.2499813 647.21,72.99 C650.950019,76.7300187 653.883323,81.0933084 656.01,86.08 C658.136677,91.0666916 659.2,96.3466388 659.2,101.92 L659.2,164.62 C659.2,167.260013 658.246676,169.533324 656.34,171.44 C654.433324,173.346676 652.160013,174.3 649.52,174.3 C646.733319,174.3 644.386676,173.346676 642.48,171.44 C640.573324,169.533324 639.62,167.260013 639.62,164.62 L639.62,101.92 C639.62,98.986652 639.070005,96.2366795 637.97,93.67 C636.869995,91.1033205 635.33001,88.8300099 633.35,86.85 C631.36999,84.8699901 629.09668,83.3300055 626.53,82.23 C623.963321,81.1299945 621.213348,80.58 618.28,80.58 C615.346652,80.58 612.560013,81.1299945 609.92,82.23 C607.279987,83.3300055 605.006676,84.8699901 603.1,86.85 C601.193324,88.8300099 599.690005,91.1033205 598.59,93.67 C597.489994,96.2366795 596.94,98.986652 596.94,101.92 C596.94,102.360002 596.793335,103.019996 596.5,103.9 L596.5,164.62 C596.5,167.260013 595.546676,169.533324 593.64,171.44 C591.733324,173.346676 589.460013,174.3 586.82,174.3 C584.033319,174.3 581.686676,173.346676 579.78,171.44 C577.873324,169.533324 576.92,167.260013 576.92,164.62 L576.92,69.36 C576.92,66.5733194 577.873324,64.2266762 579.78,62.32 C581.686676,60.4133238 584.033319,59.46 586.82,59.46 C592.100026,59.46 595.179996,62.1733062 596.06,67.6 Z" id="Jean" fill="#4ED4E7"></path>
            </g>
            <g id="Group-11" transform="translate(245.000000, 0.000000)">
                <g id="Group-7-Copy-4" transform="translate(122.500000, 112.000000) rotate(-7.000000) translate(-122.500000, -112.000000) translate(12.000000, 13.000000)">
                    <g id="Group-6">
                        <path d="M110.5,0 C129.909346,0 148.498334,4.74076331 164.404991,13.4842353 C170.223993,5.6450539 179.477067,0.797169811 189.598921,0.797169811 C206.941258,0.797169811 221,14.8949205 221,32.2853774 C221,43.6919666 214.89585,53.9368876 205.445904,59.4775594 C208.364392,67.5008991 209.870504,75.9131733 209.870504,84.5 C209.870504,131.406214 165.185735,169 110.5,169 C55.8142653,169 11.1294964,131.406214 11.1294964,84.5 C11.1294964,75.9142024 12.6352366,67.5019834 15.5527197,59.4765921 C6.1040243,53.936907 0,43.691744 0,32.2853774 C0,14.8949205 14.058742,0.797169811 31.4010791,0.797169811 C41.5232275,0.797169811 50.7763124,5.64527223 56.5963862,13.4855075 C72.5008278,4.74116293 91.0898284,0 110.5,0 Z M110.5,11.1603774 C91.1489765,11.1603774 72.7710941,16.3557563 57.6333513,25.7997439 L52.3690198,29.0840039 L49.6797409,23.4821164 C46.3247798,16.4935831 39.2718872,11.9575472 31.4010791,11.9575472 C20.2053931,11.9575472 11.1294964,21.0586267 11.1294964,32.2853774 C11.1294964,40.9400665 16.5731681,48.5603461 24.5631629,51.4284869 L30.2294166,53.4624824 L27.7641391,58.9679907 C24.1361223,67.0701523 22.2589928,75.6756725 22.2589928,84.5 C22.2589928,124.766203 61.5707584,157.839623 110.5,157.839623 C159.429242,157.839623 198.741007,124.766203 198.741007,84.5 C198.741007,75.6743845 196.863331,67.0693944 193.234092,58.9713245 L190.766492,53.4652671 L196.433961,51.4303587 C204.426553,48.5606137 209.870504,40.9403357 209.870504,32.2853774 C209.870504,21.0586267 200.794607,11.9575472 189.598921,11.9575472 C181.728279,11.9575472 174.675543,16.4934028 171.322527,23.4799022 L168.633934,29.0819791 L163.369273,25.7984902 C148.228298,16.355293 129.850142,11.1603774 110.5,11.1603774 Z" id="Combined-Shape" fill="#A9806C" fill-rule="nonzero"></path>
                        <g id="Group-8" transform="translate(55.647482, 95.660377)" fill="#836252">
                            <g id="Group-4">
                                <ellipse id="Oval" cx="8.74460432" cy="8.76886792" rx="8.74460432" ry="8.76886792"></ellipse>
                                <ellipse id="Oval-Copy-2" cx="101.755396" cy="8.76886792" rx="8.74460432" ry="8.76886792"></ellipse>
                            </g>
                            <g id="Group-3" transform="translate(39.543165, 21.523585)">
                                <ellipse id="Oval-Copy-3" cx="15.3093525" cy="7.1745283" rx="14.3093525" ry="7.1745283"></ellipse>
                                <g id="Group-2" transform="translate(0.384892, 8.160377)" fill-rule="nonzero" stroke="#836252" stroke-width="2">
                                    <path d="M12.5395683,3 C12.5395683,10.9247651 18.9460837,17.3490566 26.8489209,17.3490566 C28.1660604,17.3490566 29.2338129,16.2783414 29.2338129,14.9575472 C29.2338129,13.636753 28.1660604,12.5660377 26.8489209,12.5660377 C21.5803627,12.5660377 17.3093525,8.28317676 17.3093525,3 C17.3093525,1.67920581 16.2416,0.608490566 14.9244604,0.608490566 C13.6073209,0.608490566 12.5395683,1.67920581 12.5395683,3 Z" id="Path"></path>
                                    <path d="M0.615107914,3 C0.615107914,10.9247651 7.02162326,17.3490566 14.9244604,17.3490566 C16.2416,17.3490566 17.3093525,16.2783414 17.3093525,14.9575472 C17.3093525,13.636753 16.2416,12.5660377 14.9244604,12.5660377 C9.65590231,12.5660377 5.38489209,8.28317676 5.38489209,3 C5.38489209,1.67920581 4.31713953,0.608490566 3,0.608490566 C1.68286047,0.608490566 0.615107914,1.67920581 0.615107914,3 Z" id="Path-Copy" transform="translate(8.962230, 8.978774) scale(-1, 1) translate(-8.962230, -8.978774) "></path>
                                </g>
                            </g>
                        </g>
                    </g>
                    <g id="Group-5" transform="translate(78.000000, 137.315909)" fill="#CB4D4D">
                        <ellipse id="Oval" cx="32.1036585" cy="30.3947368" rx="14.6646341" ry="14.6052632"></ellipse>
                        <path d="M48.3536585,13.3536585 L67.8234984,34.960432 C70.4114547,37.8324323 70.1811916,42.2586017 67.3091912,44.8465581 C66.0234325,46.0051538 64.3540387,46.6463415 62.6232818,46.6463415 L34.0840353,46.6463415 C30.218042,46.6463415 27.0840353,43.5123347 27.0840353,39.6463415 C27.0840353,37.9155845 27.7252229,36.2461907 28.8838187,34.960432 L48.3536585,13.3536585 L48.3536585,13.3536585 Z" id="Triangle" transform="translate(48.353659, 30.000000) rotate(-90.000000) translate(-48.353659, -30.000000) "></path>
                        <path d="M16.6463415,13.3536585 L36.1161813,34.960432 C38.7041376,37.8324323 38.4738745,42.2586017 35.6018742,44.8465581 C34.3161154,46.0051538 32.6467216,46.6463415 30.9159647,46.6463415 L2.37671822,46.6463415 C-1.48927503,46.6463415 -4.62328178,43.5123347 -4.62328178,39.6463415 C-4.62328178,37.9155845 -3.98209413,36.2461907 -2.82349837,34.960432 L16.6463415,13.3536585 L16.6463415,13.3536585 Z" id="Triangle-Copy" transform="translate(16.646341, 30.000000) scale(-1, 1) rotate(-90.000000) translate(-16.646341, -30.000000) "></path>
                    </g>
                </g>
                <g id="Group-Copy-4" transform="translate(347.000000, 168.500000) rotate(-342.000000) translate(-347.000000, -168.500000) translate(236.000000, 84.000000)">
                    <g id="Group-6-Copy" transform="translate(0.000000, 0.000000)">
                        <path d="M111,0.449494949 C130.421322,0.449494949 149.02178,5.16503993 164.938252,13.8620013 C170.760844,6.06452017 180.019627,1.24242424 190.147727,1.24242424 C207.500765,1.24242424 221.568182,15.2651824 221.568182,32.5631313 C221.568182,43.9090436 215.460265,54.0994671 206.004489,59.6106654 C208.924777,67.5913253 210.431818,75.9588506 210.431818,84.5 C210.431818,131.156698 165.719477,168.550505 111,168.550505 C56.2805226,168.550505 11.5681818,131.156698 11.5681818,84.5 C11.5681818,75.9598742 13.0748511,67.5924038 15.9941344,59.6097033 C6.53960885,54.0994864 0.431818182,43.9088222 0.431818182,32.5631313 C0.431818182,15.2651824 14.4992348,1.24242424 31.8522727,1.24242424 C41.9806667,1.24242424 51.2394611,6.06473734 57.063126,13.8632667 C72.9773812,5.16543742 91.5778518,0.449494949 111,0.449494949 Z M111,11.5505051 C91.6370363,11.5505051 73.2478142,16.7182474 58.100731,26.111998 L52.8331512,29.3787874 L50.142213,23.806699 C46.7851817,16.855341 39.7279374,12.3434343 31.8522727,12.3434343 C20.6496787,12.3434343 11.5681818,21.396101 11.5681818,32.5631313 C11.5681818,41.1717822 17.0152124,48.7515259 25.0101373,51.6044097 L30.6798872,53.6275855 L28.2130886,59.1038073 C24.5828332,67.1628698 22.7045455,75.7226132 22.7045455,84.5 C22.7045455,124.552008 62.0405675,157.449495 111,157.449495 C159.959432,157.449495 199.295455,124.552008 199.295455,84.5 C199.295455,75.7213321 197.416619,67.162116 193.785141,59.1071234 L191.316019,53.6303554 L196.986985,51.6062716 C204.984508,48.751792 210.431818,41.1720499 210.431818,32.5631313 C210.431818,21.396101 201.350321,12.3434343 190.147727,12.3434343 C182.272229,12.3434343 175.215141,16.8551616 171.860056,23.8044965 L169.169804,29.3767734 L163.901895,26.110751 C148.751578,16.7177865 130.362082,11.5505051 111,11.5505051 Z" id="Combined-Shape" fill="#9D9D9D" fill-rule="nonzero"></path>
                        <g id="Group-8" transform="translate(56.113636, 95.601010)" fill="#797979">
                            <g id="Group-4">
                                <ellipse id="Oval" cx="8.75" cy="8.72222222" rx="8.75" ry="8.72222222"></ellipse>
                                <ellipse id="Oval-Copy-2" cx="101.818182" cy="8.72222222" rx="8.75" ry="8.72222222"></ellipse>
                            </g>
                            <g id="Group-3" transform="translate(39.568182, 21.409091)">
                                <ellipse id="Oval-Copy-3" cx="15.3181818" cy="7.13636364" rx="14.3181818" ry="7.13636364"></ellipse>
                                <g id="Group-2" transform="translate(0.386364, 8.101010)" fill-rule="nonzero" stroke="#797979" stroke-width="2">
                                    <path d="M12.5454545,3 C12.5454545,10.8826096 18.9559229,17.2727273 26.8636364,17.2727273 C28.1815886,17.2727273 29.25,16.2077077 29.25,14.8939394 C29.25,13.5801711 28.1815886,12.5151515 26.8636364,12.5151515 C21.5918274,12.5151515 17.3181818,8.25507307 17.3181818,3 C17.3181818,1.68623173 16.2497704,0.621212121 14.9318182,0.621212121 C13.6138659,0.621212121 12.5454545,1.68623173 12.5454545,3 Z" id="Path"></path>
                                    <path d="M0.613636364,3 C0.613636364,10.8826096 7.02410472,17.2727273 14.9318182,17.2727273 C16.2497704,17.2727273 17.3181818,16.2077077 17.3181818,14.8939394 C17.3181818,13.5801711 16.2497704,12.5151515 14.9318182,12.5151515 C9.66000921,12.5151515 5.38636364,8.25507307 5.38636364,3 C5.38636364,1.68623173 4.31795224,0.621212121 3,0.621212121 C1.68204776,0.621212121 0.613636364,1.68623173 0.613636364,3 Z" id="Path-Copy" transform="translate(8.965909, 8.946970) scale(-1, 1) translate(-8.965909, -8.946970) "></path>
                                </g>
                            </g>
                        </g>
                    </g>
                    <path d="M142.300806,32.7891902 L162.300431,44.7846143 C162.774057,45.0686867 162.92772,45.6829223 162.643648,46.1565481 C162.557473,46.3002254 162.43658,46.4199487 162.292072,46.5047234 L142.167058,58.3109185 C137.168087,61.2435291 130.974051,61.2435291 125.97508,58.3109185 L118.409944,53.8731841 C116.324153,55.8962632 113.460144,57.144808 110.299724,57.144808 C107.163201,57.144808 104.318623,55.9150731 102.236952,53.9189424 L94.9164107,58.1610877 C89.902366,61.0666664 83.7091277,61.0339182 78.7260905,58.0754774 L78.7260905,58.0754774 L58.7033962,46.1879574 C58.5593599,46.1024427 58.4391127,45.9821158 58.3536936,45.8380229 C58.0720625,45.3629415 58.2288849,44.7495047 58.7039664,44.4678736 L58.7039664,44.4678736 L78.1439832,32.943715 C83.2248829,29.9317272 89.5519189,29.96397 94.6018571,33.0275849 L94.6018571,33.0275849 L102.223995,37.6521306 C104.306812,35.648668 107.156689,34.4138211 110.299724,34.4138211 C113.317968,34.4138211 116.065871,35.5525577 118.123766,37.4171578 L125.841332,32.7891902 C130.907161,29.750795 137.234977,29.750795 142.300806,32.7891902 Z" id="Combined-Shape-Copy" fill="#4ED4E7"></path>
                </g>
            </g>
        </g>
    </g>
</svg>